<svg width="32" height="32" fill="none" viewBox="0 0 32 32" xmlns="http://www.w3.org/2000/svg"><title>USDC</title><circle cx="16.08" cy="16.1" r="16" fill="#3E73C2"/><path fill="#fff" d="M16.08 27.85c-6.49 0-11.75-5.26-11.75-11.75S9.59 4.35 16.08 4.35s11.75 5.26 11.75 11.75-5.26 11.75-11.75 11.75m-.7-16.11a2.59 2.59 0 0 0-2.45 2.47c0 1.21.74 2 2.31 2.33l1.1.26c1.07.25 1.51.61 1.51 1.22s-.77 1.21-1.77 1.21c-.72.07-1.42-.29-1.8-.91a.67.67 0 0 0-.61-.39h-.59a.35.35 0 0 0-.28.41c.3 1.21 1.37 2.06 2.61 2.08v.84c0 .39.32.7.7.7s.7-.32.7-.7v-.85a2.62 2.62 0 0 0 2.59-2.58c0-1.27-.73-2-2.46-2.37l-1-.22c-1-.25-1.47-.58-1.47-1.14s.6-1.18 1.6-1.18c.64-.07 1.27.25 1.59.81.13.28.41.46.72.46h.47c.22-.05.36-.28.31-.5a2.65 2.65 0 0 0-2.38-2V11c0-.39-.32-.7-.7-.7s-.7.32-.7.7z"/></svg>
